<svg width="108" height="24" viewBox="0 0 108 24" fill="none" xmlns="http://www.w3.org/2000/svg">
<path d="M13.7819 0H9.01013L0 24C1.77315 23.5404 3.65194 23.109 5.62407 22.7005L7.09259 18.4534H15.4988L16.3387 20.8816C17.978 20.6544 19.6613 20.4431 21.3834 20.2512L13.7837 0H13.7819ZM8.36919 14.319L11.2605 5.71386L14.1834 14.319H8.36919Z" fill="black"/>
<path d="M25.2432 6.45312V19.8477C26.7839 19.6998 28.3545 19.566 29.9481 19.4427V6.45312H25.2432Z" fill="black"/>
<path d="M44.57 6.2038C44.2777 6.17034 43.9079 6.15625 43.4606 6.15625C42.5397 6.15625 41.6664 6.38516 40.8388 6.84473C40.0077 7.30431 39.3016 7.99279 38.7187 8.91018V6.45735H34.1494V19.167C35.6989 19.0772 37.2661 18.9944 38.8543 18.9275V13.851C38.8543 13.3791 38.9477 12.9213 39.1413 12.4741C39.3315 12.0268 39.6273 11.6218 40.0323 11.2626C40.4127 10.9281 40.8388 10.6974 41.3072 10.5742C41.7791 10.4509 42.2703 10.3893 42.7862 10.3893C43.5716 10.3893 44.2336 10.4562 44.7707 10.5918L45.3412 6.32177C45.1176 6.27599 44.8587 6.23725 44.5682 6.2038H44.57Z" fill="black"/>
<path d="M60.3999 6.45312L56.468 18.6556L52.5361 6.45312H47.0898L51.8951 18.6856C54.885 18.6979 57.8309 18.7542 60.7168 18.8546L65.6102 6.45312H60.3999Z" fill="black"/>
<path d="M83.4928 11.3153C83.0878 10.1619 82.5014 9.18644 81.7284 8.39231C80.9554 7.59466 80.0187 6.98541 78.9199 6.55929C77.8229 6.13317 76.5921 5.92188 75.2222 5.92188C73.8523 5.92188 72.6584 6.13317 71.5579 6.55929C70.4609 6.98541 69.5259 7.59466 68.7512 8.39231C67.9782 9.18644 67.383 10.1619 66.9692 11.3153C66.5554 12.4686 66.3477 13.7646 66.3477 15.1961C66.3477 16.6277 66.5378 18.0011 66.9182 19.1474C68.7477 19.2566 70.5507 19.3763 72.3221 19.5189C72.2799 19.4644 72.2376 19.408 72.1989 19.3499C71.5456 18.3955 71.2234 17.0115 71.2234 15.1961C71.2234 13.3807 71.5526 12.0372 72.2147 11.0969C72.8768 10.1549 73.8787 9.68299 75.2222 9.68299C76.5657 9.68299 77.5694 10.1549 78.2297 11.0969C78.8917 12.0355 79.2228 13.4036 79.2228 15.1961C79.2228 16.9886 78.89 18.3674 78.2297 19.3305C78.0518 19.5876 77.8529 19.8112 77.6257 19.9979C79.3865 20.1757 81.1086 20.3729 82.7902 20.5842C83.0561 20.1317 83.2832 19.6387 83.4734 19.114C83.8907 17.9606 84.095 16.6558 84.095 15.1961C84.095 13.7364 83.896 12.4686 83.491 11.3153H83.4928Z" fill="black"/>
<path d="M87.6943 6.45312V21.2581C89.3108 21.5064 90.8814 21.7688 92.3992 22.047V6.45312H87.6943Z" fill="black"/>
<path d="M107.021 6.2038C106.731 6.17034 106.359 6.15625 105.912 6.15625C104.994 6.15625 104.118 6.38516 103.29 6.84473C102.459 7.30431 101.756 7.99279 101.173 8.91018V6.45735H96.6006V22.8753C98.2399 23.2257 99.8106 23.6148 101.305 24.0022V13.851C101.305 13.3791 101.402 12.9213 101.593 12.4741C101.783 12.0268 102.078 11.6218 102.483 11.2626C102.864 10.9281 103.29 10.6974 103.762 10.5742C104.23 10.4509 104.725 10.3893 105.239 10.3893C106.025 10.3893 106.687 10.4562 107.224 10.5918L107.794 6.32177C107.571 6.27599 107.312 6.23725 107.021 6.2038Z" fill="black"/>
</svg>
